<svg width="575" height="575" viewBox="0 0 575 575" fill="none" xmlns="http://www.w3.org/2000/svg">
<circle cx="287.5" cy="287.5" r="277.5" stroke="#00ABE8" stroke-width="20"/>
<path d="M101 463.501C117 298.501 447 296.501 475 463.501L101 463.501Z" fill="#019950"/>
<circle cx="288" cy="210" r="111" fill="#CEA277"/>
<path d="M398 89C398 107 358.752 154 298 154C237.249 154 194 144 199 114C199 98.536 203 79 253 79C332 79 321 121 398 89Z" fill="#B05739"/>
<path d="M369.5 182C371 186.5 375.628 216.706 388.727 213.948C404.743 213.948 406 184.5 397 160C388 135.5 377.516 120.5 361.5 120.5C344.993 118.369 367.976 175.382 369.5 182Z" fill="#B05739"/>
<path d="M204.089 181.558C202.589 186.058 197.961 216.264 184.862 213.506C168.846 213.506 167.589 184.058 176.589 159.558C185.589 135.058 196.073 120.058 212.089 120.058C228.595 117.927 205.613 174.94 204.089 181.558Z" fill="#B05739"/>
</svg>
